<?xml version="1.0" encoding="utf-8"?>
<!-- Generator: Adobe Illustrator 26.0.2, SVG Export Plug-In . SVG Version: 6.00 Build 0)  -->
<svg version="1.1" id="レイヤー_1" xmlns="http://www.w3.org/2000/svg" xmlns:xlink="http://www.w3.org/1999/xlink" x="0px"
	 y="0px" viewBox="0 0 414.5 81.9" style="enable-background:new 0 0 414.5 81.9;" xml:space="preserve">
<style type="text/css">
	.st0{enable-background:new    ;}
	.st1{fill:#131313;}
	.st2{fill:#D4D4D4;}
</style>
<g id="レイヤー_1_00000054969419702685904010000001730161526504206779_" transform="translate(-14.645 -17.691)">
	<g class="st0">
		<path class="st1" d="M24.2,60.7V36h-8.3v-4.9h22.6V36h-8.4v24.7H24.2z"/>
		<path class="st1" d="M51.1,61.2c-4.2,0-7.8-1.4-10.8-4.3l3.4-4.1c2.4,2.2,4.9,3.3,7.5,3.3c1.5,0,2.7-0.3,3.5-0.9
			c0.8-0.6,1.2-1.4,1.2-2.5c0-0.5-0.1-1-0.3-1.3c-0.2-0.4-0.5-0.7-1-1.1c-0.5-0.3-0.9-0.6-1.3-0.7c-0.3-0.2-1-0.4-1.9-0.8l-4-1.7
			c-4-1.7-6-4.3-6-8c0-2.4,1-4.5,2.9-6.1c1.9-1.6,4.4-2.4,7.4-2.4c1.7,0,3.4,0.3,5,1c1.6,0.7,3,1.6,4.2,2.8l-3,3.7
			c-1.9-1.6-4-2.4-6.3-2.4c-1.3,0-2.4,0.3-3.1,0.8c-0.8,0.6-1.2,1.3-1.2,2.3c0,0.9,0.4,1.6,1.1,2.1s1.8,1,3.2,1.6
			c0.2,0.1,0.3,0.1,0.4,0.1l3.9,1.6c1.9,0.8,3.4,1.8,4.4,3.1c1,1.3,1.5,2.9,1.5,4.9c0,2.5-1,4.6-3,6.4C57,60.4,54.4,61.2,51.1,61.2z
			"/>
		<path class="st1" d="M78.6,61.2c-7.7,0-11.5-4.6-11.5-13.9V31.1H73v16.8c0,3,0.5,5.1,1.4,6.3c1,1.3,2.3,1.9,4.2,1.9
			c1.9,0,3.3-0.6,4.3-1.9c1-1.3,1.5-3.4,1.5-6.3V31.1H90v16.3C90,56.6,86.2,61.2,78.6,61.2z"/>
		<path class="st1" d="M97.1,60.7V31.1h9.8c7.1,0,10.7,2.4,10.7,7.3c0,1.4-0.4,2.7-1.1,3.9c-0.7,1.2-1.7,2-2.9,2.5V45
			c1.7,0.4,3,1.2,4,2.4c1,1.2,1.5,2.7,1.5,4.6c0,2.9-1,5-3.1,6.5c-2.1,1.5-4.9,2.2-8.3,2.2H97.1z M103,43.1h3.4
			c3.6,0,5.4-1.3,5.4-3.9c0-1.3-0.4-2.2-1.3-2.8c-0.9-0.6-2.2-0.9-4-0.9H103V43.1z M103,56.1h4.1c4.2,0,6.2-1.5,6.2-4.5
			c0-2.7-2.1-4.1-6.2-4.1H103V56.1z"/>
		<path class="st1" d="M145.6,57.1c-2.4,2.8-5.6,4.2-9.6,4.2c-4,0-7.2-1.4-9.6-4.2c-2.4-2.8-3.7-6.5-3.7-11.3
			c0-4.7,1.2-8.5,3.6-11.2c2.4-2.7,5.6-4.1,9.6-4.1s7.2,1.4,9.6,4.1c2.4,2.7,3.6,6.4,3.6,11.2C149.3,50.5,148.1,54.3,145.6,57.1z
			 M130.8,53.3c1.3,1.9,3,2.8,5.3,2.8c2.2,0,4-0.9,5.3-2.8c1.3-1.9,2-4.4,2-7.5c0-3.2-0.7-5.6-2-7.4c-1.3-1.8-3.1-2.7-5.3-2.7
			c-2.2,0-4,0.9-5.3,2.7s-1.9,4.3-1.9,7.5C128.9,48.9,129.5,51.5,130.8,53.3z"/>
		<path class="st1" d="M155.1,60.7V31.1h5.9v12.9h0.1l9.8-12.9h6.5l-9.1,11.6l10.7,18h-6.5l-7.7-13.3l-3.9,5v8.3H155.1z"/>
		<path class="st1" d="M193.2,61.2c-7.7,0-11.5-4.6-11.5-13.9V31.1h5.9v16.8c0,3,0.5,5.1,1.4,6.3c1,1.3,2.3,1.9,4.2,1.9
			c1.9,0,3.3-0.6,4.3-1.9c1-1.3,1.5-3.4,1.5-6.3V31.1h5.7v16.3C204.6,56.6,200.8,61.2,193.2,61.2z"/>
		<path class="st1" d="M234.4,60.7h-6.6l-6.1-11.2h-4.1v11.2h-5.9V31.1H222c7.4,0,11.1,3,11.1,9c0,4.2-1.9,7.1-5.6,8.5L234.4,60.7z
			 M217.6,35.8v9h3.8c3.9,0,5.9-1.6,5.9-4.7c0-1.5-0.5-2.6-1.5-3.3s-2.5-1-4.4-1H217.6z"/>
		<path class="st1" d="M254.5,60.7l-2.1-7.6h-9.6l-2.1,7.6h-6l9.5-29.6h7l9.5,29.6H254.5z M244.1,48.5h7l-0.9-3.2
			c-0.3-1.1-0.8-2.8-1.4-5.1c-0.6-2.2-1-3.8-1.2-4.6h-0.2c-0.7,3-1.5,6.2-2.5,9.7L244.1,48.5z"/>
	</g>
	<g class="st0">
		<path class="st1" d="M287.6,61.2c-4.2,0-7.8-1.4-10.8-4.3l3.4-4.1c2.4,2.2,4.9,3.3,7.5,3.3c1.5,0,2.7-0.3,3.5-0.9
			c0.8-0.6,1.2-1.4,1.2-2.5c0-0.5-0.1-1-0.3-1.3c-0.2-0.4-0.5-0.7-1-1.1c-0.5-0.3-0.9-0.6-1.3-0.7c-0.3-0.2-1-0.4-1.9-0.8l-4-1.7
			c-4-1.7-6-4.3-6-8c0-2.4,1-4.5,2.9-6.1c1.9-1.6,4.4-2.4,7.4-2.4c1.7,0,3.4,0.3,5,1c1.6,0.7,3,1.6,4.2,2.8l-3,3.7
			c-1.9-1.6-4-2.4-6.3-2.4c-1.3,0-2.4,0.3-3.1,0.8c-0.8,0.6-1.2,1.3-1.2,2.3c0,0.9,0.4,1.6,1.1,2.1s1.8,1,3.2,1.6
			c0.2,0.1,0.3,0.1,0.4,0.1l3.9,1.6c1.9,0.8,3.4,1.8,4.4,3.1c1,1.3,1.5,2.9,1.5,4.9c0,2.5-1,4.6-3,6.4
			C293.5,60.4,290.9,61.2,287.6,61.2z"/>
		<path class="st1" d="M303.7,60.7V31.1h5.9v11.6h11.2V31.1h5.9v29.6h-5.9V47.9h-11.2v12.8H303.7z"/>
		<path class="st1" d="M345.3,61.2c-7.7,0-11.5-4.6-11.5-13.9V31.1h5.9v16.8c0,3,0.5,5.1,1.4,6.3c1,1.3,2.3,1.9,4.2,1.9
			c1.9,0,3.3-0.6,4.3-1.9c1-1.3,1.5-3.4,1.5-6.3V31.1h5.7v16.3C356.8,56.6,353,61.2,345.3,61.2z"/>
		<path class="st1" d="M363.8,60.7V31.1h5.9v11.6h11.2V31.1h5.9v29.6h-5.9V47.9h-11.2v12.8H363.8z"/>
		<path class="st1" d="M394.1,60.7V31.1h18.2V36H400v6.8h10.4v5H400v7.9h12.7v5H394.1z"/>
		<path class="st1" d="M418.7,60.7V31.1h5.9v29.6H418.7z"/>
	</g>
	<g class="st0">
		<path class="st2" d="M134.4,92.6l-3.3-17h3.5l1.3,8.3c0.1,0.6,0.2,1.5,0.4,2.7s0.3,2.1,0.4,2.8h0.1c0,0,0.4-1.8,1.1-5.4l2-8.3h2.9
			l2,8.3c0.2,1.2,0.6,3,1.1,5.4h0.1c0.1-0.7,0.2-1.7,0.4-3c0.2-1.3,0.3-2.1,0.3-2.4l1.3-8.3h3.2l-3.1,17h-4.2l-1.9-8.4
			c-0.4-1.8-0.6-3.1-0.7-3.9h-0.1c-0.2,1.4-0.5,2.7-0.7,3.9l-1.9,8.4H134.4z"/>
		<path class="st2" d="M153.8,92.6v-17h10.4v2.8h-7v3.9h6v2.9h-6v4.6h7.3v2.9H153.8z"/>
		<path class="st2" d="M167.9,92.6v-17h5.6c4.1,0,6.2,1.4,6.2,4.2c0,0.8-0.2,1.6-0.6,2.2c-0.4,0.7-1,1.2-1.7,1.4v0.1
			c1,0.2,1.7,0.7,2.3,1.4c0.6,0.7,0.9,1.6,0.9,2.7c0,1.6-0.6,2.9-1.8,3.7c-1.2,0.8-2.8,1.3-4.8,1.3H167.9z M171.3,82.5h2
			c2.1,0,3.1-0.7,3.1-2.2c0-0.7-0.2-1.3-0.7-1.6s-1.3-0.5-2.3-0.5h-2V82.5z M171.3,90h2.4c2.4,0,3.6-0.9,3.6-2.6
			c0-1.6-1.2-2.4-3.6-2.4h-2.4V90z"/>
		<path class="st2" d="M188.8,92.6v-17h4.7c2.7,0,4.7,0.7,6.2,2.1c1.5,1.4,2.2,3.5,2.2,6.3c0,2.8-0.7,4.9-2.2,6.4
			c-1.5,1.5-3.5,2.2-6,2.2H188.8z M192.2,89.9h1.1c3.4,0,5.1-1.9,5.1-5.8c0-3.8-1.7-5.7-5.1-5.7h-1.1V89.9z"/>
		<path class="st2" d="M205.2,92.6v-17h10.4v2.8h-7v3.9h6v2.9h-6v4.6h7.3v2.9H205.2z"/>
		<path class="st2" d="M224.4,93c-2.4,0-4.5-0.8-6.2-2.5l2-2.4c1.4,1.3,2.8,1.9,4.3,1.9c0.9,0,1.5-0.2,2-0.5s0.7-0.8,0.7-1.4
			c0-0.3,0-0.6-0.1-0.8c-0.1-0.2-0.3-0.4-0.6-0.6s-0.5-0.3-0.7-0.4s-0.6-0.2-1.1-0.5l-2.3-1c-2.3-1-3.4-2.5-3.4-4.6
			c0-1.4,0.6-2.6,1.7-3.5c1.1-0.9,2.5-1.4,4.2-1.4c1,0,2,0.2,2.9,0.6c0.9,0.4,1.8,0.9,2.4,1.6l-1.7,2.1c-1.1-0.9-2.3-1.4-3.6-1.4
			c-0.8,0-1.4,0.2-1.8,0.5c-0.4,0.3-0.7,0.8-0.7,1.3c0,0.5,0.2,0.9,0.6,1.2c0.4,0.3,1,0.6,1.9,0.9c0.1,0,0.2,0.1,0.2,0.1l2.2,0.9
			c1.1,0.5,2,1.1,2.5,1.8c0.6,0.7,0.9,1.7,0.9,2.8c0,1.5-0.6,2.7-1.7,3.7S226.3,93,224.4,93z"/>
		<path class="st2" d="M233.7,92.6v-17h3.4v17H233.7z"/>
		<path class="st2" d="M248.6,93c-2.4,0-4.4-0.8-5.9-2.3c-1.5-1.5-2.3-3.7-2.3-6.4c0-2.7,0.8-4.9,2.3-6.5s3.5-2.4,5.9-2.4
			c2.1,0,3.8,0.7,5.3,2.2l-1.8,2.2c-1-0.9-2.1-1.4-3.3-1.4c-1.4,0-2.6,0.5-3.5,1.6s-1.3,2.5-1.3,4.3c0,1.9,0.4,3.3,1.3,4.4
			s2.1,1.5,3.8,1.5c0.9,0,1.6-0.2,2.1-0.6V86h-3v-2.8h6.1v7.7c-0.6,0.6-1.4,1.1-2.4,1.5C250.7,92.8,249.7,93,248.6,93z"/>
		<path class="st2" d="M257.7,92.6v-17h3.5l4.9,9.1l1.7,3.7h0.1c-0.3-3-0.4-5-0.4-6v-6.8h3.2v17h-3.5l-4.9-9.1l-1.7-3.6h-0.1
			c0,0.2,0.1,0.8,0.2,1.7c0.1,1,0.2,1.7,0.2,2.4c0,0.6,0.1,1.2,0.1,1.8v6.8H257.7z"/>
		<path class="st2" d="M274.9,92.6v-17h10.4v2.8h-7v3.9h6v2.9h-6v4.6h7.3v2.9H274.9z"/>
		<path class="st2" d="M302.1,92.6h-3.8l-3.5-6.4h-2.4v6.4h-3.4v-17h5.9c4.3,0,6.4,1.7,6.4,5.2c0,2.4-1.1,4.1-3.2,4.9L302.1,92.6z
			 M292.5,78.3v5.2h2.2c2.3,0,3.4-0.9,3.4-2.7c0-0.9-0.3-1.5-0.8-1.9c-0.6-0.4-1.4-0.6-2.5-0.6H292.5z"/>
	</g>
</g>
</svg>
